<?xml version="1.0" standalone="no"?>
<!DOCTYPE svg PUBLIC "-//W3C//DTD SVG 20010904//EN"
 "http://www.w3.org/TR/2001/REC-SVG-20010904/DTD/svg10.dtd">
<svg version="1.0" xmlns="http://www.w3.org/2000/svg"
 width="671.000000pt" height="317.000000pt" viewBox="0 0 671.000000 317.000000"
 preserveAspectRatio="xMidYMid meet">
<metadata>
Created by potrace 1.15, written by Peter Selinger 2001-2017
</metadata>
<g transform="translate(0.000000,317.000000) scale(0.100000,-0.100000)"
fill="#000000" stroke="none">
<path d="M3785 2897 c-176 -101 -332 -191 -347 -201 -54 -35 -58 -67 -58 -409
l0 -313 -132 -49 c-157 -57 -202 -80 -217 -109 -7 -13 -12 -130 -13 -324 -2
-166 -2 -302 -1 -302 1 0 82 47 180 104 98 56 195 109 217 116 48 15 113 9
166 -18 22 -11 42 -17 44 -13 2 3 3 158 2 343 -1 186 0 338 2 338 9 0 210
-105 225 -118 16 -14 17 -44 17 -366 l0 -351 118 -67 117 -66 3 500 c1 275 1
722 0 994 l-3 494 -320 -183z"/>
<path d="M2150 1130 l0 -980 290 0 290 0 5 22 c3 13 4 391 3 840 -3 810 -3
818 -24 838 -16 16 -540 260 -559 260 -3 0 -5 -441 -5 -980z"/>
<path d="M4571 1760 c-90 -37 -168 -73 -175 -80 -8 -8 -12 -223 -14 -770 l-2
-760 185 0 185 0 0 840 c0 462 -3 840 -7 840 -5 -1 -82 -32 -172 -70z"/>
<path d="M3400 1261 c-25 -14 -155 -89 -289 -166 -134 -77 -250 -150 -258
-162 -12 -18 -16 -90 -20 -403 l-5 -380 647 0 646 0 -3 385 -3 385 -25 23
c-14 14 -133 86 -265 162 -132 76 -258 149 -281 161 -51 30 -87 29 -144 -5z
m50 -436 l0 -85 -78 0 c-43 0 -81 2 -83 4 -2 2 -3 41 -1 85 l4 81 79 0 79 0 0
-85z m220 0 l0 -85 -85 0 -85 0 0 85 0 85 85 0 85 0 0 -85z m-220 -215 l0 -90
-69 0 c-103 0 -101 -2 -101 96 l0 84 85 0 85 0 0 -90z m218 3 l-3 -88 -60 -3
c-105 -5 -105 -5 -105 93 l0 85 85 0 86 0 -3 -87z"/>
</g>
</svg>
