<svg version="1" xmlns="http://www.w3.org/2000/svg" width="200" height="100" viewBox="0 0 671 317"><path d="M378.5 27.3c-17.6 10.1-33.2 19.1-34.7 20.1-5.4 3.5-5.8 6.7-5.8 40.9v31.3l-13.2 4.9c-15.7 5.7-20.2 8-21.7 10.9-.7 1.3-1.2 13-1.3 32.4-.2 16.6-.2 30.2-.1 30.2s8.2-4.7 18-10.4c9.8-5.6 19.5-10.9 21.7-11.6 4.8-1.5 11.3-.9 16.6 1.8 2.2 1.1 4.2 1.7 4.4 1.3.2-.3.3-15.8.2-34.3-.1-18.6 0-33.8.2-33.8.9 0 21 10.5 22.5 11.8 1.6 1.4 1.7 4.4 1.7 36.6v35.1l11.8 6.7 11.7 6.6.3-50c.1-27.5.1-72.2 0-99.4L410.5 9l-32 18.3zM215 204v98h58l.5-2.2c.3-1.3.4-39.1.3-84-.3-81-.3-81.8-2.4-83.8-1.6-1.6-54-26-55.9-26-.3 0-.5 44.1-.5 98zM457.1 141c-9 3.7-16.8 7.3-17.5 8-.8.8-1.2 22.3-1.4 77l-.2 76h37v-84c0-46.2-.3-84-.7-84-.5.1-8.2 3.2-17.2 7z"/><path d="M340 190.9c-2.5 1.4-15.5 8.9-28.9 16.6-13.4 7.7-25 15-25.8 16.2-1.2 1.8-1.6 9-2 40.3l-.5 38h129.3l-.3-38.5-.3-38.5-2.5-2.3c-1.4-1.4-13.3-8.6-26.5-16.2s-25.8-14.9-28.1-16.1c-5.1-3-8.7-2.9-14.4.5zm5 43.6v8.5h-7.8c-4.3 0-8.1-.2-8.3-.4-.2-.2-.3-4.1-.1-8.5l.4-8.1H345v8.5zm22 0v8.5h-17v-17h17v8.5zM345 256v9h-6.9c-10.3 0-10.1.2-10.1-9.6V247h17v9zm21.8-.3l-.3 8.8-6 .3c-10.5.5-10.5.5-10.5-9.3V247h17.1l-.3 8.7z"/></svg>