<?xml version="1.0" standalone="no"?>
<!DOCTYPE svg PUBLIC "-//W3C//DTD SVG 20010904//EN"
 "http://www.w3.org/TR/2001/REC-SVG-20010904/DTD/svg10.dtd">
<svg version="1.0" xmlns="http://www.w3.org/2000/svg"
 width="77.000000pt" height="63.000000pt" viewBox="0 0 77.000000 63.000000"
 preserveAspectRatio="xMidYMid meet">
<metadata>
Created by potrace 1.15, written by Peter Selinger 2001-2017
</metadata>
<g transform="translate(0.000000,63.000000) scale(0.100000,-0.100000)"
fill="#000000" stroke="none">
<path d="M155 494 c-71 -52 -134 -99 -139 -104 -6 -6 10 -70 44 -180 l54 -170
186 0 187 0 13 45 13 45 129 0 c118 0 129 2 126 17 -3 16 -18 18 -143 18
l-139 0 -15 -47 c-8 -27 -18 -48 -23 -48 -4 0 -8 23 -8 50 l0 50 -44 0 -45 0
-4 -52 c-2 -29 -4 0 -5 65 l-2 117 -45 0 -44 0 -4 -117 c-2 -65 -3 -36 -3 65
l1 182 -42 0 -43 0 0 -180 c0 -99 -4 -180 -8 -180 -10 0 -104 289 -97 300 3 4
59 47 125 95 l121 87 112 -81 112 -81 75 2 c59 2 75 6 75 18 0 12 -17 16 -75
20 l-75 5 -105 77 c-58 43 -112 78 -120 77 -8 0 -73 -43 -145 -95z"/>
</g>
</svg>
